<?xml version="1.0" encoding="utf-8"?>
<?xml-stylesheet type="text/css" href="../css/svg.css" ?>
<svg version="1.1" id="Layer_1" xmlns="http://www.w3.org/2000/svg" xmlns:xlink="http://www.w3.org/1999/xlink" x="0px" y="0px"
	 viewBox="0 0 518.9 518.9" style="enable-background:new 0 0 518.9 518.9;" xml:space="preserve">
<style type="text/css">

</style>
<circle class="lightbulb-part lightbulb-accent" cx="260.4" cy="246.6" r="127.4"/>
<g class="lightbulb">
	<path class="lightbulb-part lightbulb-body" d="M148.4,224.5c3.2-20.3,12.6-38.6,26.7-54.2c30.8-34.1,69.1-46.9,113.2-35.2c45.1,11.9,73.1,42.4,83,88.6
			c0.1,0.7,0.2,1.4,0.3,2.1c1.5,13-2.4,20.7-10.9,21.7c-8.7,1-13.7-5.2-14.7-18.6c-0.7-8.7-3.2-16.6-11.2-21.5
			c-2.7-1.6-3.5-3.3-3.1-6.8c1.7-14.2-7.2-25.7-21.7-28.2c-4.4-0.8-7.4-1.8-9.8-6.2c-7-12.4-21.7-16.8-34.4-10.4
			c-4.3,2.2-7.1,2.2-11.4,0c-12.9-6.6-28.2-1.8-35.2,10.9c-2,3.6-4.2,4.8-8,5.5c-16.3,3.1-23.6,12.4-22.6,29.3
			c0.2,3.8-1.9,4.8-4.1,6.5c-6.8,5.3-10.1,12.5-10.6,20.9c-2.5,41.4,7.3,76.8,48.2,96.6c3.4,1.6,5.2,4.4,6.4,7.9
			c5.1,14.7,17.3,17,30.5,17.1c13.9,0.1,27.1-1.5,32.5-17.2c1.7-5,5.4-6.9,9.6-8.9c17-8.2,30-20.5,38.7-37.3
			c4.9-9.5,3-12.7-7.5-13.5c-0.7-0.1-1.4,0-2.1-0.1c-27.7-1-30-2.8-37-29.5c-1.3-4.9-2.9-9.8-4.8-16.5c-4.7,6.7-5,12.8-6.9,18.2
			c-2.3,6.6-3.7,13.6-7.7,19.5c-7.5,11.1-20.3,11-27.7-0.2c-4.9-7.5-6.5-16.2-9.1-24.6c-1.1-3.6-2.2-7.3-3.8-12.6
			c-5.7,7.6-6,15.4-8.3,22.4c-2.3,7.1-4.6,14.1-10.4,19.2c-5,4.3-10.9,6.2-16,1.1c-5.1-5.1-2.8-10.3,2.3-14.3
			c5.4-4.3,6-10.9,7.8-16.8c2.6-8.7,4.1-17.8,8.5-25.9c3.2-5.9,7.4-10.2,14.7-10.3c7.6-0.1,12.3,4.1,15.7,10.4
			c5.7,10.6,6.7,22.8,12.2,35.2c4.7-8.2,5.6-16.1,8-23.5c5.2-16.1,10.9-22.6,20.4-22c13.5,0.8,15.8,12.1,19.3,21.9
			c3.3,9.2,2.5,20.7,9.5,27.5c7.4,7.2,18.8,2.2,28.3,3.1c14.2,1.3,22.5,12.2,19.5,27.7c-5.1,26-22.3,43.1-43.5,56.7
			c-7.6,4.9-14.6,9.4-20.6,16.9c-10.7,13.5-27.5,15.1-43.3,14.3c-17.3-0.8-34.6-3.7-43.4-22.2c-0.8-1.7-3.1-2.8-4.9-3.8
			C178,328.2,155,300.6,149,265.8c-1.1-6.3-1.7-19.1-1.7-20.5C147.2,241.4,147.2,231.9,148.4,224.5z"/>
	<path class="lightbulb-part lightbulb-body" d="M260.1,399.6c-13.1,0-24.2-6.4-28.2-16.4c-0.8-2-2-4.1-0.7-6c1.5-2.2,3.7-0.9,5.7-0.1c15.3,6.4,30.6,6.4,45.9,0.1
			c1.9-0.8,4-2.3,5.7-0.2c1.5,1.8,0.3,4-0.4,5.9C284.3,392.9,273,399.6,260.1,399.6z"/>
</g>
<polygon class="lightning-bolt lightning-bolt-main" points="120.4,152.5 142.9,152.6 142.6,152.2 165.8,150.4 103.1,113.8 155.8,112.6 0,9.4 98.8,94.6 43.1,94.9
	125.7,142.8 80.8,142.6 86.3,145.2 85.5,145.1 185.9,200.9 120.4,152.5 "/>
<path class="lightbulb-part lightbulb-m" d="M318.8,256.8c-3.1-2.5-4.7-5.7-5.7-9.1c-0.8-2.5-1.3-5.2-2.1-7.7c-0.4-1.2-0.7-2.3-1-3.5
		c-0.7-3.6-1.3-7.3-2.5-10.7c-3-8.4-5.1-17.7-13.9-20.9c-1.7-0.7-3.6-1.1-5.7-1.1c-1,0-2,0.1-2.9,0.2c-0.3,0-0.6,0.1-0.8,0.1
		c-0.1,0-0.2,0-0.3,0.1c-0.4,0.1-0.7,0.2-1.1,0.3c0,0-0.1,0-0.1,0c-0.4,0.1-0.8,0.3-1.1,0.4c-4.1,1.6-7,4.9-9.3,9.3
		c-5.6,10.2-6.7,22-11.8,34.1c-0.2,0.3-0.4,0.7-0.5,1c-0.2-0.3-0.4-0.7-0.5-1c-5.1-12.1-6.2-23.8-11.8-34.1
		c-2.4-4.3-5.3-7.7-9.3-9.3c-0.4-0.1-0.7-0.3-1.1-0.4c0,0-0.1,0-0.1,0c-0.4-0.1-0.7-0.2-1.1-0.3c-0.1,0-0.2,0-0.3-0.1
		c-0.3-0.1-0.6-0.1-0.8-0.1c-0.9-0.1-1.9-0.2-2.9-0.2c-2.2,0-4,0.4-5.7,1.1c-8.8,3.2-11,12.5-13.9,20.9c-1.2,3.4-1.8,7-2.5,10.7
		c-0.3,1.2-0.7,2.4-1,3.5c-0.8,2.5-1.3,5.2-2.1,7.7c-1.1,3.4-2.6,6.7-5.7,9.1c-5.1,4.1-7.4,9.2-2.3,14.3c1.1,1.1,2.2,1.8,3.4,2.3
		c4.2,1.9,8.7,0,12.7-3.4c0.3-0.3,0.6-0.5,0.9-0.8c3.3-2.5,5.4-6.4,7.5-12.4c0.7-1.9,1.4-3.9,2-5.9c2.2-6.6,2.6-13.9,7.4-21.2
		c3.7,6,4.1,11.6,5.8,16.6c2.3,6.6,3.7,13.6,7.7,19.5c3.8,5.5,8.9,8.3,13.9,8.2c5.1,0.1,10.2-2.7,13.9-8.2c4-5.9,5.4-12.9,7.7-19.5
		c1.7-5,2.1-10.6,5.8-16.6c4.8,7.2,5.2,14.6,7.4,21.2c0.7,2,1.3,4,2,5.9c2.1,6.1,4.2,9.9,7.5,12.4c0.3,0.3,0.6,0.5,0.9,0.8
		c3.9,3.4,8.4,5.3,12.7,3.4c1.1-0.5,2.3-1.3,3.4-2.3C326.2,266,323.9,260.8,318.8,256.8z"/>

<g class="lightning-bolts">
	<polygon class="lightning-bolt" points="265.1,25.3 259.7,20.6 259.7,20.7 253.7,16.4 261.3,38.2 248.3,27.6 264.6,84.7 258.3,43.7
		271.9,55.2 261.8,26.5 272.6,35.8 271.8,34.1 272,34.2 259.3,0 265.1,25.3 	"/>
	<polygon class="lightning-bolt" points="265.1,493.6 259.7,498.3 259.7,498.1 253.7,502.5 261.3,480.7 248.3,491.3 264.6,434.1 258.3,475.1
		271.9,463.7 261.8,492.4 272.6,483 271.8,484.8 272,484.6 259.3,518.9 265.1,493.6 	"/>
	<polygon class="lightning-bolt" points="147.4,54.3 140.4,53 140.4,53.1 133.1,52.3 150.5,67.4 134,64.7 176.7,106.1 150.8,73.7 168.2,76.8
		145.2,57 159.2,59.7 157.6,58.6 157.9,58.6 129.7,35.3 147.4,54.3 	"/>
	<polygon class="lightning-bolt" points="381.6,459.9 379.2,466.7 379.1,466.5 376.1,473.3 371.8,450.6 365.8,466.3 351.4,408.6 366.5,447.3
		372.5,430.6 378.1,460.5 382.8,447 383,448.9 383,448.7 389.1,484.7 381.6,459.9 	"/>
	<polygon class="lightning-bolt" points="59.6,137.9 52.8,140.2 52.9,140.3 46.1,143.3 68.8,147.7 53.2,153.6 110.8,168.1 72.2,153 88.8,147
		59,141.3 72.4,136.7 70.5,136.5 70.8,136.4 34.8,130.3 59.6,137.9 	"/>
	<polygon class="lightning-bolt" points="465.1,372 466.5,379.1 466.3,379 467.1,386.4 452,368.9 454.7,385.4 413.4,342.8 445.8,368.7
		442.6,351.3 462.4,374.3 459.7,360.3 460.9,361.8 460.8,361.6 484.1,389.7 465.1,372 	"/>
	<polygon class="lightning-bolt" points="25.3,254.2 20.6,259.6 20.7,259.6 16.4,265.6 38.2,258 27.6,271 84.7,254.7 43.7,260.9 55.2,247.4
		26.5,257.5 35.8,246.7 34.1,247.5 34.2,247.3 0,260 25.3,254.2 	"/>
	<polygon class="lightning-bolt" points="493.6,254.2 498.3,259.6 498.1,259.6 502.5,265.6 480.7,258 491.3,271 434.1,254.7 475.1,260.9
		463.7,247.4 492.4,257.5 483,246.7 484.8,247.5 484.6,247.3 518.9,260 493.6,254.2 	"/>
	<polygon class="lightning-bolt" points="465.1,147.3 466.4,140.2 466.3,140.3 467.1,132.9 451.9,150.4 454.6,133.9 413.3,176.5 445.7,150.6
		442.5,168.1 462.4,145 459.7,159 460.8,157.5 460.7,157.7 484,129.6 465.1,147.3 	"/>
	<polygon class="lightning-bolt" points="59.5,381.4 52.7,379.1 52.8,379 46.1,376 68.7,371.6 53.1,365.7 110.7,351.2 72.1,366.3 88.7,372.3
		58.9,378 72.4,382.6 70.5,382.8 70.7,382.9 34.7,389 59.5,381.4 	"/>
	<polygon class="lightning-bolt" points="381.1,59.8 378.7,53.1 378.6,53.2 375.6,46.4 371.3,69.1 365.3,53.4 350.9,111.1 366,72.4 372,89.1
		377.6,59.3 382.3,72.7 382.5,70.8 382.5,71.1 388.6,35.1 381.1,59.8 	"/>
	<polygon class="lightning-bolt" points="146.9,465.4 139.9,466.8 139.9,466.6 132.6,467.4 150,452.3 133.5,455 176.2,413.7 150.3,446.1
		167.7,442.9 144.7,462.7 158.7,460 157.1,461.2 157.3,461.1 129.2,484.4 146.9,465.4 	"/>
</g>

<filter id="blur">
  <feGaussianBlur in="SourceGraphic" stdDeviation="3" />
</filter>

<filter id="big-blur">
  <feGaussianBlur in="SourceGraphic" stdDeviation="10" />
</filter>

</svg>
